<svg width="178" height="178" viewBox="0 0 178 178" fill="none" xmlns="http://www.w3.org/2000/svg">
<path d="M169.595 126.756C163.034 140.76 152.938 152.813 140.301 161.727C127.663 170.641 112.922 176.109 97.528 177.59C82.1344 179.072 66.6203 176.517 52.5148 170.178C38.4092 163.838 26.199 153.932 17.0876 141.437L38.6613 125.706C45.0393 134.453 53.5865 141.387 63.4603 145.824C73.3342 150.262 84.1941 152.051 94.9696 151.013C105.745 149.976 116.064 146.149 124.91 139.909C133.756 133.669 140.824 125.232 145.416 115.429L169.595 126.756Z" fill="#B0B0B0"/>
<path d="M17.102 141.456C7.98711 128.963 2.28482 114.311 0.557138 98.9428C-1.17054 83.5749 1.13601 68.022 7.24948 53.8169C13.363 39.6118 23.0723 27.2448 35.4207 17.9348C47.7691 8.62479 62.3303 2.69307 77.6692 0.724217L81.0685 27.207C70.3312 28.5851 60.1384 32.7374 51.4945 39.2544C42.8506 45.7714 36.0541 54.4282 31.7746 64.3718C27.4952 74.3154 25.8806 85.2024 27.09 95.96C28.2994 106.718 32.291 116.974 38.6714 125.72L17.102 141.456Z" fill="#CFCFCF"/>
<path d="M77.638 0.728237C93.4465 -1.30658 109.511 0.941305 124.154 7.23704C138.797 13.5328 151.48 23.6453 160.879 36.5181C170.278 49.3909 176.048 64.5516 177.585 80.4163C179.122 96.2809 176.371 112.267 169.618 126.705L145.433 115.394C150.16 105.287 152.086 94.0966 151.01 82.9914C149.933 71.8861 145.895 61.2737 139.316 52.2627C132.736 43.2517 123.858 36.1729 113.608 31.7659C103.358 27.3589 92.1125 25.7854 81.0466 27.2098L77.638 0.728237Z" fill="#E8E8E8"/>
<circle cx="89" cy="89" r="50" fill="#D9D9D9"/>
</svg>
