<svg width="78" height="78" viewBox="0 0 78 78" fill="none" xmlns="http://www.w3.org/2000/svg">
<g filter="url(#filter0_d_342_2621)">
<path opacity="0.971" fill-rule="evenodd" clip-rule="evenodd" d="M38.1249 0.0921108C39.5628 -0.221076 40.608 0.26439 41.2603 1.54852C41.3576 3.6846 41.3576 5.82067 41.2603 7.95675C40.608 9.26493 39.5628 9.72613 38.1249 9.34034C37.4686 9.07333 37.0068 8.61213 36.7395 7.95675C36.6422 5.82067 36.6422 3.6846 36.7395 1.54852C37.0343 0.890226 37.4962 0.404759 38.1249 0.0921108Z" fill="white"/>
<path opacity="0.949" fill-rule="evenodd" clip-rule="evenodd" d="M12.4583 7.083C13.2757 6.9968 14.0535 7.11817 14.7916 7.44711C15.9443 8.50068 16.9895 9.64153 17.9271 10.8697C18.1264 13.6797 16.8868 14.6264 14.2083 13.7097C13.0556 12.6561 12.0105 11.5153 11.0729 10.2871C10.7063 8.83676 11.1681 7.76871 12.4583 7.083Z" fill="white"/>
<path opacity="0.949" fill-rule="evenodd" clip-rule="evenodd" d="M63.7902 7.08279C66.6015 6.95313 67.5495 8.21536 66.6339 10.8695C65.579 12.0206 64.4366 13.0644 63.2068 14.0008C60.3931 14.1998 59.4452 12.9619 60.3631 10.2869C61.4463 9.13153 62.5886 8.06348 63.7902 7.08279Z" fill="white"/>
<path opacity="0.991" fill-rule="evenodd" clip-rule="evenodd" d="M35.7916 14.0738C37.931 14.0495 40.0699 14.0738 42.2083 14.1466C43.5181 14.7981 43.98 15.8419 43.5937 17.2779C43.1833 18.296 42.4298 18.7814 41.3333 18.7344C41.3333 19.5111 41.3333 20.2879 41.3333 21.0646C46.121 21.117 50.7389 22.0151 55.1874 23.759C60.0195 25.8658 63.3493 29.3856 65.177 34.318C66.4577 38.344 67.0654 42.4704 66.9999 46.6975C68.9281 46.9013 69.6817 47.9694 69.2603 49.9016C68.993 50.557 68.5312 51.0183 67.8749 51.2852C48.6249 51.3824 29.3749 51.3824 10.1249 51.2852C8.81502 50.6338 8.35321 49.59 8.73951 48.1539C9.14988 47.1359 9.90336 46.6505 10.9999 46.6975C10.9451 42.9425 11.4069 39.2529 12.3853 35.6288C14.2543 29.49 18.2162 25.3392 24.2708 23.1764C28.2939 21.8434 32.4258 21.1393 36.6666 21.0646C36.6666 20.2879 36.6666 19.5111 36.6666 18.7344C34.7384 18.5306 33.9849 17.4625 34.4062 15.5302C34.701 14.8719 35.1629 14.3865 35.7916 14.0738ZM42.9374 30.677C46.6174 30.576 50.0203 31.4742 53.1458 33.3713C55.1701 35.0089 56.434 37.1207 56.9374 39.7067C56.6135 41.4134 55.5927 42.1172 53.8749 41.8185C53.4284 41.664 53.0638 41.397 52.7812 41.0175C52.2486 38.2526 50.6202 36.5293 47.8958 35.8472C46.1003 35.4716 44.3015 35.1318 42.4999 34.8277C41.4187 33.9109 41.2 32.8186 41.8437 31.5508C42.152 31.1691 42.5165 30.8778 42.9374 30.677Z" fill="white"/>
<path opacity="0.997" fill-rule="evenodd" clip-rule="evenodd" d="M36.6667 56.0186C38.2223 56.0186 39.7777 56.0186 41.3333 56.0186C41.3333 56.7953 41.3333 57.5721 41.3333 58.3488C49.9375 58.3488 58.5417 58.3488 67.1458 58.3488C67.372 61.1721 68.9033 62.7255 71.7396 63.0093C72.538 65.3288 73.2915 67.6591 74 70.0001C50.6667 70.0001 27.3333 70.0001 4 70.0001C4.70844 67.6591 5.46191 65.3288 6.26042 63.0093C9.09677 62.7255 10.628 61.1721 10.8542 58.3488C19.4583 58.3488 28.0625 58.3488 36.6667 58.3488C36.6667 57.5721 36.6667 56.7953 36.6667 56.0186Z" fill="white"/>
</g>
<defs>
<filter id="filter0_d_342_2621" x="0" y="0" width="78" height="78.0002" filterUnits="userSpaceOnUse" color-interpolation-filters="sRGB">
<feFlood flood-opacity="0" result="BackgroundImageFix"/>
<feColorMatrix in="SourceAlpha" type="matrix" values="0 0 0 0 0 0 0 0 0 0 0 0 0 0 0 0 0 0 127 0" result="hardAlpha"/>
<feOffset dy="4"/>
<feGaussianBlur stdDeviation="2"/>
<feComposite in2="hardAlpha" operator="out"/>
<feColorMatrix type="matrix" values="0 0 0 0 0 0 0 0 0 0 0 0 0 0 0 0 0 0 0.25 0"/>
<feBlend mode="normal" in2="BackgroundImageFix" result="effect1_dropShadow_342_2621"/>
<feBlend mode="normal" in="SourceGraphic" in2="effect1_dropShadow_342_2621" result="shape"/>
</filter>
</defs>
</svg>
