<svg width="165" height="40" viewBox="0 0 165 40" fill="none" xmlns="http://www.w3.org/2000/svg">
<g clip-path="url(#clip0_7_3)">
<path d="M102.872 32.5805V33.9071C102.872 33.9705 102.853 34.0144 102.816 34.0587C102.784 34.0965 102.734 34.1155 102.67 34.1155C102.613 34.1155 102.569 34.0965 102.525 34.0587C102.481 34.0144 102.462 33.9705 102.462 33.9071V32.5805C102.462 32.3783 102.5 32.1887 102.569 32.018C102.639 31.8412 102.74 31.6896 102.866 31.5567C102.992 31.4241 103.138 31.3227 103.308 31.2472C103.479 31.1714 103.668 31.1334 103.864 31.1334C104.066 31.1334 104.25 31.1714 104.414 31.2472C104.585 31.323 104.73 31.4241 104.85 31.5504C104.97 31.683 105.071 31.8349 105.14 32.0118C105.21 32.1887 105.242 32.3718 105.242 32.5742V32.5808V32.5933V33.9075C105.242 33.9708 105.222 34.0148 105.185 34.0591C105.147 34.0968 105.103 34.1158 105.046 34.1158C104.983 34.1158 104.932 34.0968 104.894 34.0591C104.85 34.0148 104.831 33.9708 104.831 33.9075V32.5933C104.831 32.5742 104.831 32.568 104.837 32.5617C104.831 32.4229 104.806 32.29 104.761 32.1637C104.711 32.0436 104.641 31.9363 104.559 31.8415C104.471 31.7532 104.37 31.6774 104.256 31.6269C104.136 31.5701 104.009 31.5448 103.87 31.5448C103.725 31.5448 103.592 31.5701 103.472 31.6206C103.352 31.6774 103.251 31.747 103.162 31.8418C103.074 31.9304 103.005 32.0377 102.954 32.164C102.904 32.2841 102.872 32.4167 102.872 32.5621V32.5811L102.872 32.5805ZM105.722 32.6438C105.722 32.4354 105.76 32.2395 105.842 32.0561C105.918 31.873 106.025 31.7086 106.164 31.576C106.303 31.4369 106.461 31.3296 106.645 31.2538C106.828 31.1718 107.024 31.1337 107.226 31.1337C107.434 31.1337 107.63 31.1718 107.807 31.2476C107.99 31.3299 108.148 31.4307 108.281 31.5698C108.42 31.7024 108.527 31.8605 108.603 32.0374C108.685 32.2205 108.723 32.4164 108.729 32.6185V32.6248V32.6438V33.895C108.729 33.9583 108.71 34.0088 108.673 34.0466C108.628 34.0909 108.578 34.1099 108.521 34.1099C108.458 34.1099 108.413 34.0909 108.376 34.0466C108.338 34.0085 108.319 33.958 108.319 33.895V33.6423C108.18 33.7939 108.016 33.9202 107.832 34.0151C107.643 34.1037 107.447 34.1542 107.225 34.1542C107.023 34.1542 106.827 34.1161 106.644 34.0341C106.461 33.9583 106.303 33.851 106.164 33.7119C106.025 33.5731 105.917 33.4149 105.842 33.2318C105.76 33.0487 105.722 32.8528 105.722 32.6441L105.722 32.6438ZM106.133 32.6438C106.133 32.7954 106.164 32.9345 106.221 33.0671C106.278 33.1934 106.354 33.3135 106.455 33.4146C106.55 33.5094 106.67 33.5915 106.802 33.6485C106.935 33.7053 107.074 33.7371 107.226 33.7371C107.384 33.7371 107.523 33.7056 107.655 33.6485C107.794 33.5918 107.908 33.5097 108.003 33.4146C108.104 33.3135 108.18 33.1934 108.237 33.0671C108.294 32.9345 108.319 32.7954 108.319 32.6438C108.319 32.4922 108.294 32.3468 108.237 32.2142C108.18 32.0817 108.098 31.9616 108.003 31.8668C107.902 31.7657 107.788 31.6836 107.655 31.6266C107.523 31.5698 107.384 31.5445 107.226 31.5445C107.074 31.5445 106.935 31.5698 106.802 31.6266C106.67 31.6833 106.55 31.7654 106.455 31.8668C106.354 31.9616 106.278 32.0817 106.221 32.2142C106.164 32.3468 106.133 32.4922 106.133 32.6438ZM109.848 31.1714H111.219C111.276 31.1714 111.32 31.1905 111.364 31.2282C111.402 31.2722 111.428 31.3165 111.428 31.3736C111.428 31.4303 111.409 31.4812 111.364 31.5189C111.326 31.5632 111.276 31.5823 111.219 31.5823H109.848V32.6753C109.848 32.8207 109.879 32.9595 109.936 33.0924C109.993 33.2252 110.069 33.3325 110.17 33.4274C110.271 33.5222 110.385 33.598 110.518 33.6548C110.656 33.7116 110.796 33.7368 110.954 33.7368C111.093 33.7368 111.219 33.7178 111.333 33.6735C111.447 33.6354 111.554 33.5724 111.661 33.4776C111.674 33.4648 111.686 33.4586 111.699 33.4461C111.712 33.4399 111.725 33.4271 111.744 33.4208C111.775 33.408 111.813 33.408 111.845 33.408C111.883 33.4143 111.914 33.4271 111.946 33.4586C111.971 33.4776 111.983 33.5029 111.996 33.5281C112.002 33.5596 112.009 33.5849 112.009 33.6167C112.003 33.6482 111.996 33.6735 111.984 33.705C111.971 33.7303 111.952 33.7555 111.933 33.7746C111.8 33.9009 111.655 33.9957 111.491 34.0591C111.32 34.1224 111.143 34.1539 110.954 34.1539C110.745 34.1539 110.549 34.1158 110.36 34.04C110.177 33.9642 110.019 33.8569 109.88 33.724C109.741 33.5911 109.633 33.4333 109.557 33.2564C109.475 33.0733 109.437 32.8774 109.437 32.6687V30.3751C109.437 30.3183 109.456 30.2678 109.501 30.2297C109.539 30.1854 109.589 30.1664 109.646 30.1664C109.703 30.1664 109.753 30.1854 109.791 30.2231C109.83 30.2674 109.848 30.318 109.848 30.381V31.1708L109.848 31.1714ZM112.489 30.5207C112.489 30.4449 112.514 30.3882 112.565 30.3376C112.609 30.2933 112.666 30.2681 112.736 30.2681C112.805 30.2681 112.862 30.2933 112.912 30.3376C112.957 30.3882 112.982 30.4449 112.982 30.5207C112.982 30.5841 112.957 30.6471 112.912 30.6914C112.862 30.7419 112.805 30.7672 112.736 30.7672C112.704 30.7672 112.666 30.7609 112.641 30.7481C112.609 30.7291 112.584 30.7166 112.559 30.6914C112.54 30.6723 112.521 30.6408 112.508 30.6156C112.495 30.5841 112.489 30.5522 112.489 30.5207ZM112.938 33.9012C112.938 33.958 112.919 34.0085 112.881 34.0466C112.843 34.0909 112.792 34.1099 112.736 34.1099C112.679 34.1099 112.628 34.0909 112.59 34.0466C112.546 34.0085 112.527 33.958 112.527 33.9012V31.3801C112.527 31.3234 112.546 31.2725 112.59 31.2348C112.628 31.1967 112.679 31.1714 112.736 31.1714C112.792 31.1714 112.843 31.1967 112.881 31.2348C112.919 31.2725 112.938 31.323 112.938 31.3801V33.9012ZM113.942 32.6438C113.942 32.7954 113.974 32.9345 114.031 33.0671C114.087 33.1934 114.163 33.3135 114.264 33.4146C114.359 33.5094 114.479 33.5915 114.612 33.6485C114.744 33.7053 114.884 33.7371 115.035 33.7371C115.193 33.7371 115.332 33.7056 115.465 33.6485C115.603 33.5918 115.717 33.5097 115.812 33.4146C115.913 33.3135 115.989 33.1934 116.046 33.0671C116.103 32.9345 116.128 32.7954 116.128 32.6438C116.128 32.4922 116.103 32.3468 116.046 32.2142C115.989 32.0817 115.907 31.9616 115.812 31.8668C115.711 31.7657 115.597 31.6836 115.465 31.6266C115.332 31.5698 115.193 31.5445 115.035 31.5445C114.884 31.5445 114.744 31.5698 114.612 31.6266C114.479 31.6833 114.359 31.7654 114.264 31.8668C114.163 31.9616 114.087 32.0817 114.031 32.2142C113.974 32.3468 113.942 32.4922 113.942 32.6438ZM113.532 32.6438C113.532 32.4354 113.57 32.2395 113.652 32.0561C113.727 31.873 113.835 31.7086 113.974 31.576C114.113 31.4369 114.271 31.3296 114.454 31.2538C114.637 31.1718 114.833 31.1337 115.035 31.1337C115.244 31.1337 115.44 31.1718 115.623 31.2538C115.806 31.3296 115.964 31.4369 116.097 31.576C116.236 31.7086 116.343 31.873 116.419 32.0561C116.501 32.2392 116.539 32.4351 116.539 32.6438C116.539 32.8525 116.501 33.0484 116.419 33.2315C116.343 33.4146 116.236 33.5727 116.097 33.7116C115.964 33.8507 115.806 33.958 115.623 34.0338C115.44 34.1161 115.244 34.1539 115.035 34.1539C114.833 34.1539 114.637 34.1158 114.454 34.0338C114.271 33.958 114.113 33.8507 113.974 33.7116C113.835 33.5727 113.727 33.4146 113.652 33.2315C113.57 33.0484 113.532 32.8525 113.532 32.6438ZM117.424 32.5805V33.9071C117.424 33.9705 117.405 34.0144 117.367 34.0587C117.335 34.0965 117.285 34.1155 117.222 34.1155C117.165 34.1155 117.12 34.0965 117.076 34.0587C117.032 34.0144 117.013 33.9705 117.013 33.9071V32.5805C117.013 32.3783 117.051 32.1887 117.12 32.018C117.19 31.8412 117.291 31.6896 117.417 31.5567C117.544 31.4241 117.689 31.3227 117.86 31.2472C118.03 31.1714 118.22 31.1334 118.416 31.1334C118.618 31.1334 118.801 31.1714 118.965 31.2472C119.136 31.323 119.281 31.4241 119.401 31.5504C119.521 31.683 119.622 31.8349 119.692 32.0118C119.761 32.1887 119.793 32.3718 119.793 32.5742V32.5808V32.5933V33.9075C119.793 33.9708 119.774 34.0148 119.736 34.0591C119.698 34.0968 119.654 34.1158 119.597 34.1158C119.534 34.1158 119.483 34.0968 119.446 34.0591C119.401 34.0148 119.382 33.9708 119.382 33.9075V32.5933C119.382 32.5742 119.382 32.568 119.389 32.5617C119.382 32.4229 119.357 32.29 119.313 32.1637C119.262 32.0436 119.193 31.9363 119.111 31.8415C119.022 31.7532 118.921 31.6774 118.807 31.6269C118.687 31.5701 118.561 31.5448 118.422 31.5448C118.276 31.5448 118.144 31.5701 118.024 31.6206C117.903 31.6774 117.802 31.747 117.714 31.8418C117.625 31.9304 117.556 32.0377 117.505 32.164C117.455 32.2841 117.423 32.4167 117.423 32.5621V32.5811L117.424 32.5805ZM120.273 32.6438C120.273 32.4354 120.311 32.2395 120.393 32.0561C120.469 31.873 120.576 31.7086 120.716 31.576C120.854 31.4369 121.013 31.3296 121.196 31.2538C121.379 31.1718 121.575 31.1337 121.777 31.1337C121.985 31.1337 122.182 31.1718 122.358 31.2476C122.541 31.3299 122.699 31.4307 122.832 31.5698C122.971 31.7024 123.078 31.8605 123.154 32.0374C123.236 32.2205 123.274 32.4164 123.281 32.6185V32.6248V32.6438V33.895C123.281 33.9583 123.262 34.0088 123.224 34.0466C123.18 34.0909 123.129 34.1099 123.072 34.1099C123.009 34.1099 122.965 34.0909 122.927 34.0466C122.889 34.0085 122.87 33.958 122.87 33.895V33.6423C122.731 33.7939 122.567 33.9202 122.384 34.0151C122.194 34.1037 121.998 34.1542 121.777 34.1542C121.575 34.1542 121.379 34.1161 121.196 34.0341C121.013 33.9583 120.855 33.851 120.716 33.7119C120.577 33.5731 120.469 33.4149 120.393 33.2318C120.311 33.0487 120.273 32.8528 120.273 32.6441V32.6438ZM120.684 32.6438C120.684 32.7954 120.716 32.9345 120.772 33.0671C120.829 33.1934 120.905 33.3135 121.006 33.4146C121.101 33.5094 121.221 33.5915 121.354 33.6485C121.486 33.7053 121.625 33.7371 121.777 33.7371C121.935 33.7371 122.074 33.7056 122.207 33.6485C122.345 33.5918 122.459 33.5097 122.554 33.4146C122.655 33.3135 122.731 33.1934 122.788 33.0671C122.845 32.9345 122.87 32.7954 122.87 32.6438C122.87 32.4922 122.845 32.3468 122.788 32.2142C122.731 32.0817 122.649 31.9616 122.554 31.8668C122.453 31.7657 122.339 31.6836 122.207 31.6266C122.074 31.5698 121.935 31.5445 121.777 31.5445C121.625 31.5445 121.486 31.5698 121.354 31.6266C121.221 31.6833 121.101 31.7654 121.006 31.8668C120.905 31.9616 120.829 32.0817 120.772 32.2142C120.716 32.3468 120.684 32.4922 120.684 32.6438ZM125.195 33.9075C125.195 33.9642 125.176 34.0148 125.139 34.0528C125.101 34.0906 125.056 34.1096 125 34.1096H124.993H124.981C124.835 34.1096 124.703 34.0781 124.583 34.0272C124.456 33.9767 124.355 33.9071 124.267 33.8189C124.178 33.724 124.109 33.6167 124.058 33.4842C124.008 33.3578 123.982 33.2125 123.982 33.0609V30.2428C123.982 30.186 124.002 30.1352 124.039 30.0912C124.084 30.0531 124.128 30.0344 124.185 30.0344C124.241 30.0344 124.286 30.0535 124.33 30.0912C124.374 30.1352 124.393 30.186 124.393 30.2428V33.0609C124.393 33.263 124.45 33.4146 124.551 33.5284C124.658 33.6361 124.798 33.6928 124.981 33.6991H124.993C125.05 33.6991 125.101 33.7181 125.139 33.7624C125.177 33.8005 125.196 33.851 125.196 33.9078L125.195 33.9075ZM127.514 31.1714H128.885C128.942 31.1714 128.986 31.1905 129.031 31.2282C129.069 31.2722 129.094 31.3165 129.094 31.3736C129.094 31.4303 129.075 31.4812 129.031 31.5189C128.993 31.5632 128.942 31.5823 128.885 31.5823H127.514V32.6753C127.514 32.8207 127.546 32.9595 127.603 33.0924C127.659 33.2252 127.735 33.3325 127.836 33.4274C127.938 33.5222 128.051 33.598 128.184 33.6548C128.323 33.7116 128.462 33.7368 128.62 33.7368C128.759 33.7368 128.886 33.7178 128.999 33.6735C129.113 33.6354 129.22 33.5724 129.328 33.4776C129.341 33.4648 129.353 33.4586 129.366 33.4461C129.378 33.4399 129.391 33.4271 129.41 33.4208C129.441 33.408 129.479 33.408 129.511 33.408C129.549 33.4143 129.581 33.4271 129.612 33.4586C129.637 33.4776 129.65 33.5029 129.663 33.5281C129.669 33.5596 129.675 33.5849 129.675 33.6167C129.669 33.6482 129.663 33.6735 129.65 33.705C129.638 33.7303 129.619 33.7555 129.6 33.7746C129.467 33.9009 129.322 33.9957 129.157 34.0591C128.987 34.1224 128.81 34.1539 128.62 34.1539C128.411 34.1539 128.216 34.1158 128.026 34.04C127.843 33.9642 127.685 33.8569 127.546 33.724C127.407 33.5911 127.3 33.4333 127.224 33.2564C127.142 33.0733 127.104 32.8774 127.104 32.6687V30.3751C127.104 30.3183 127.123 30.2678 127.167 30.2297C127.205 30.1854 127.256 30.1664 127.312 30.1664C127.369 30.1664 127.42 30.1854 127.458 30.2231C127.496 30.2674 127.515 30.318 127.515 30.381V31.1708L127.514 31.1714ZM130.363 32.6438C130.363 32.7954 130.395 32.9345 130.452 33.0671C130.509 33.1934 130.585 33.3135 130.686 33.4146C130.781 33.5094 130.901 33.5915 131.033 33.6485C131.166 33.7053 131.305 33.7371 131.457 33.7371C131.615 33.7371 131.753 33.7056 131.886 33.6485C132.025 33.5918 132.139 33.5097 132.234 33.4146C132.335 33.3135 132.41 33.1934 132.468 33.0671C132.524 32.9345 132.55 32.7954 132.55 32.6438C132.55 32.4922 132.524 32.3468 132.468 32.2142C132.411 32.0817 132.329 31.9616 132.234 31.8668C132.132 31.7657 132.019 31.6836 131.886 31.6266C131.753 31.5698 131.614 31.5445 131.457 31.5445C131.305 31.5445 131.166 31.5698 131.033 31.6266C130.901 31.6833 130.781 31.7654 130.686 31.8668C130.585 31.9616 130.509 32.0817 130.452 32.2142C130.395 32.3468 130.363 32.4922 130.363 32.6438ZM129.953 32.6438C129.953 32.4354 129.991 32.2395 130.073 32.0561C130.149 31.873 130.256 31.7086 130.395 31.576C130.534 31.4369 130.692 31.3296 130.875 31.2538C131.058 31.1718 131.254 31.1337 131.457 31.1337C131.665 31.1337 131.861 31.1718 132.044 31.2538C132.227 31.3296 132.385 31.4369 132.518 31.576C132.657 31.7086 132.764 31.873 132.84 32.0561C132.923 32.2392 132.96 32.4351 132.96 32.6438C132.96 32.8525 132.923 33.0484 132.84 33.2315C132.764 33.4146 132.657 33.5727 132.518 33.7116C132.385 33.8507 132.228 33.958 132.044 34.0338C131.861 34.1161 131.665 34.1539 131.457 34.1539C131.254 34.1539 131.058 34.1158 130.875 34.0338C130.692 33.958 130.534 33.8507 130.395 33.7116C130.257 33.5727 130.149 33.4146 130.073 33.2315C129.991 33.0484 129.953 32.8525 129.953 32.6438ZM133.883 32.7006C133.883 32.8394 133.908 32.9723 133.959 33.0986C134.009 33.2249 134.079 33.3322 134.168 33.4271C134.256 33.5219 134.363 33.5977 134.484 33.6545C134.61 33.7112 134.742 33.7365 134.882 33.7365C135.027 33.7365 135.16 33.705 135.273 33.6545C135.394 33.5974 135.495 33.5216 135.577 33.4271C135.659 33.326 135.722 33.2187 135.766 33.092C135.817 32.9595 135.836 32.8266 135.836 32.6815V31.3798C135.836 31.323 135.855 31.2722 135.899 31.2282C135.937 31.1902 135.987 31.1714 136.044 31.1714C136.101 31.1714 136.152 31.1905 136.19 31.2282C136.227 31.2722 136.246 31.323 136.246 31.3798V32.694C136.246 32.8961 136.215 33.0858 136.145 33.2627C136.076 33.4395 135.987 33.5911 135.867 33.724C135.747 33.8566 135.602 33.9577 135.431 34.04C135.267 34.1158 135.084 34.1539 134.882 34.1539C134.686 34.1539 134.496 34.1158 134.325 34.04C134.155 33.9642 134.003 33.8569 133.883 33.7303C133.757 33.5974 133.656 33.4395 133.58 33.2627C133.51 33.0858 133.473 32.9027 133.473 32.7003V31.3733C133.473 31.3165 133.492 31.266 133.536 31.2279C133.574 31.1898 133.618 31.1711 133.675 31.1711C133.731 31.1711 133.782 31.1902 133.82 31.2279C133.864 31.2656 133.883 31.3162 133.883 31.3733V32.7003L133.883 32.7006ZM137.327 33.9012C137.327 33.9642 137.308 34.0085 137.27 34.0528C137.232 34.0906 137.182 34.1096 137.131 34.1096C137.068 34.1096 137.017 34.0906 136.979 34.0528C136.935 34.0085 136.916 33.9642 136.916 33.9012V32.7449C136.916 32.5302 136.96 32.3278 137.042 32.1319C137.124 31.9422 137.232 31.7782 137.377 31.6328C137.516 31.494 137.68 31.3801 137.87 31.2981C138.06 31.216 138.262 31.1718 138.476 31.1718H138.483H138.502C138.565 31.1718 138.622 31.1908 138.659 31.2285C138.698 31.2663 138.716 31.3168 138.716 31.3739C138.716 31.4307 138.691 31.4815 138.653 31.5193C138.609 31.5635 138.558 31.5826 138.501 31.5826H138.482H138.476C138.318 31.5826 138.173 31.6141 138.034 31.6709C137.895 31.7342 137.768 31.8162 137.667 31.9173C137.56 32.0246 137.478 32.1512 137.421 32.2901C137.357 32.4292 137.326 32.5808 137.326 32.7449V33.9012H137.327ZM140.839 32.6438C140.839 32.7954 140.871 32.9345 140.928 33.0671C140.985 33.1934 141.06 33.3135 141.162 33.4146C141.257 33.5094 141.377 33.5915 141.509 33.6485C141.642 33.7053 141.781 33.7371 141.933 33.7371C142.091 33.7371 142.23 33.7056 142.362 33.6485C142.501 33.5918 142.615 33.5097 142.71 33.4146C142.811 33.3135 142.887 33.1934 142.944 33.0671C143 32.9345 143.026 32.7954 143.026 32.6438C143.026 32.4922 143 32.3468 142.944 32.2142C142.887 32.0817 142.805 31.9616 142.71 31.8668C142.609 31.7657 142.495 31.6836 142.362 31.6266C142.23 31.5698 142.091 31.5445 141.933 31.5445C141.781 31.5445 141.642 31.5698 141.509 31.6266C141.377 31.6833 141.257 31.7654 141.162 31.8668C141.061 31.9616 140.985 32.0817 140.928 32.2142C140.871 32.3468 140.839 32.4922 140.839 32.6438ZM140.429 32.6438C140.429 32.4354 140.467 32.2395 140.549 32.0561C140.625 31.873 140.732 31.7086 140.871 31.576C141.01 31.4369 141.168 31.3296 141.352 31.2538C141.535 31.1718 141.731 31.1337 141.933 31.1337C142.141 31.1337 142.337 31.1718 142.52 31.2538C142.703 31.3296 142.862 31.4369 142.994 31.576C143.133 31.7086 143.241 31.873 143.316 32.0561C143.398 32.2392 143.437 32.4351 143.437 32.6438C143.437 32.8525 143.398 33.0484 143.316 33.2315C143.241 33.4146 143.133 33.5727 142.994 33.7116C142.862 33.8507 142.703 33.958 142.52 34.0338C142.337 34.1161 142.141 34.1539 141.933 34.1539C141.731 34.1539 141.535 34.1158 141.352 34.0338C141.168 33.958 141.01 33.8507 140.871 33.7116C140.732 33.5727 140.625 33.4146 140.549 33.2315C140.467 33.0484 140.429 32.8525 140.429 32.6438ZM143.91 32.6438C143.91 32.4354 143.948 32.2395 144.03 32.0561C144.106 31.873 144.213 31.7086 144.352 31.576C144.491 31.4369 144.649 31.3296 144.832 31.2538C145.016 31.1718 145.211 31.1337 145.42 31.1337C145.629 31.1337 145.825 31.1718 146.008 31.2538C146.191 31.3296 146.349 31.4369 146.482 31.576C146.62 31.7086 146.728 31.873 146.804 32.0561C146.886 32.2392 146.924 32.4351 146.924 32.6438C146.924 32.8525 146.886 33.0484 146.804 33.2315C146.728 33.4146 146.621 33.5727 146.482 33.7116C146.349 33.8507 146.191 33.958 146.008 34.0338C145.825 34.1161 145.629 34.1539 145.42 34.1539C145.199 34.1539 144.997 34.1096 144.814 34.0275C144.624 33.9393 144.46 33.8254 144.321 33.6738V34.969C144.321 35.0323 144.302 35.0828 144.264 35.1206C144.233 35.1649 144.182 35.1839 144.119 35.1839C144.062 35.1839 144.011 35.1649 143.973 35.1206C143.929 35.0825 143.91 35.032 143.91 34.969V32.6438ZM144.321 32.6438C144.321 32.7954 144.352 32.9345 144.409 33.0671C144.466 33.1934 144.542 33.3135 144.643 33.4146C144.738 33.5094 144.858 33.5915 144.991 33.6485C145.123 33.7053 145.269 33.7371 145.42 33.7371C145.572 33.7371 145.717 33.7056 145.85 33.6485C145.982 33.5918 146.102 33.5097 146.197 33.4146C146.298 33.3135 146.374 33.1934 146.431 33.0671C146.488 32.9345 146.513 32.7954 146.513 32.6438C146.513 32.4922 146.488 32.3468 146.431 32.2142C146.374 32.0817 146.292 31.9616 146.197 31.8668C146.096 31.7657 145.982 31.6836 145.85 31.6266C145.717 31.5698 145.572 31.5445 145.42 31.5445C145.269 31.5445 145.123 31.5698 144.991 31.6266C144.858 31.6833 144.738 31.7654 144.643 31.8668C144.542 31.9616 144.466 32.0817 144.409 32.2142C144.352 32.3468 144.321 32.4922 144.321 32.6438ZM147.733 32.8269C147.745 32.9595 147.783 33.0796 147.846 33.1934C147.909 33.301 147.985 33.3956 148.08 33.4779C148.175 33.56 148.283 33.6233 148.403 33.6738C148.523 33.7181 148.649 33.7434 148.782 33.7434C148.934 33.7434 149.085 33.7119 149.224 33.6551C149.363 33.598 149.477 33.5097 149.565 33.4024C149.635 33.3519 149.704 33.3391 149.774 33.3581C149.812 33.3709 149.843 33.4024 149.869 33.4402C149.894 33.4782 149.907 33.5284 149.907 33.579C149.907 33.6295 149.882 33.6801 149.831 33.7181C149.717 33.8444 149.572 33.9455 149.401 34.0275C149.225 34.1099 149.022 34.1539 148.782 34.1539C148.574 34.1539 148.378 34.1158 148.195 34.0338C148.018 33.958 147.853 33.8507 147.721 33.7116C147.582 33.5727 147.474 33.4146 147.392 33.2315C147.316 33.0484 147.279 32.8525 147.279 32.6438C147.279 32.4354 147.317 32.2395 147.392 32.0561C147.474 31.873 147.582 31.7148 147.721 31.576C147.853 31.4369 148.018 31.3296 148.195 31.2538C148.378 31.1718 148.574 31.1337 148.782 31.1337C148.991 31.1337 149.186 31.1718 149.37 31.2476C149.553 31.3299 149.711 31.4372 149.844 31.5698C149.983 31.7024 150.09 31.8667 150.172 32.0436C150.248 32.2267 150.292 32.4226 150.292 32.6248C150.292 32.6815 150.273 32.7324 150.236 32.7701C150.204 32.8082 150.154 32.8269 150.097 32.8269H147.734H147.733ZM149.874 32.4794C149.855 32.3468 149.818 32.2202 149.754 32.1066C149.697 31.9928 149.615 31.8983 149.52 31.8097C149.419 31.7276 149.312 31.6643 149.185 31.6138C149.059 31.5695 148.933 31.5442 148.793 31.5442C148.648 31.5442 148.516 31.5695 148.395 31.6138C148.269 31.6643 148.161 31.7276 148.06 31.8159C147.966 31.8983 147.89 31.9928 147.827 32.1066C147.77 32.2205 147.732 32.3468 147.719 32.4794H149.874H149.874ZM151.189 33.9012C151.189 33.9642 151.17 34.0085 151.132 34.0528C151.094 34.0906 151.044 34.1096 150.993 34.1096C150.93 34.1096 150.879 34.0906 150.842 34.0528C150.797 34.0085 150.778 33.9642 150.778 33.9012V32.7449C150.778 32.5302 150.823 32.3278 150.905 32.1319C150.987 31.9422 151.094 31.7782 151.239 31.6328C151.378 31.494 151.543 31.3801 151.732 31.2981C151.922 31.216 152.124 31.1718 152.339 31.1718H152.345H152.364C152.428 31.1718 152.484 31.1908 152.522 31.2285C152.56 31.2663 152.579 31.3168 152.579 31.3739C152.579 31.4307 152.554 31.4815 152.515 31.5193C152.471 31.5635 152.421 31.5826 152.364 31.5826H152.345H152.338C152.18 31.5826 152.035 31.6141 151.896 31.6709C151.757 31.7342 151.631 31.8162 151.53 31.9173C151.422 32.0246 151.34 32.1512 151.283 32.2901C151.22 32.4292 151.189 32.5808 151.189 32.7449V33.9012H151.189Z" fill="#3392FF"/>
<path d="M152.68 32.6438C152.68 32.4354 152.718 32.2395 152.8 32.0561C152.876 31.873 152.983 31.7086 153.122 31.576C153.261 31.4369 153.419 31.3296 153.603 31.2538C153.786 31.1718 153.982 31.1337 154.184 31.1337C154.392 31.1337 154.588 31.1718 154.765 31.2476C154.948 31.3299 155.106 31.4307 155.239 31.5698C155.378 31.7024 155.485 31.8605 155.561 32.0374C155.643 32.2205 155.681 32.4164 155.687 32.6185V32.6248V32.6438V33.895C155.687 33.9583 155.668 34.0088 155.631 34.0466C155.586 34.0909 155.536 34.1099 155.479 34.1099C155.416 34.1099 155.371 34.0909 155.334 34.0466C155.295 34.0085 155.277 33.958 155.277 33.895V33.6423C155.138 33.7939 154.974 33.9202 154.79 34.0151C154.6 34.1037 154.405 34.1542 154.183 34.1542C153.981 34.1542 153.785 34.1161 153.602 34.0341C153.419 33.9583 153.261 33.851 153.122 33.7119C152.983 33.5731 152.875 33.4149 152.8 33.2318C152.718 33.0487 152.68 32.8528 152.68 32.6441L152.68 32.6438ZM153.09 32.6438C153.09 32.7954 153.122 32.9345 153.179 33.0671C153.235 33.1934 153.311 33.3135 153.413 33.4146C153.507 33.5094 153.628 33.5915 153.76 33.6486C153.893 33.7053 154.032 33.7371 154.183 33.7371C154.342 33.7371 154.48 33.7056 154.613 33.6486C154.752 33.5918 154.866 33.5097 154.96 33.4146C155.062 33.3135 155.137 33.1934 155.194 33.0671C155.251 32.9345 155.276 32.7954 155.276 32.6438C155.276 32.4922 155.251 32.3468 155.194 32.2143C155.137 32.0817 155.055 31.9616 154.96 31.8668C154.859 31.7657 154.746 31.6837 154.613 31.6266C154.48 31.5698 154.341 31.5445 154.183 31.5445C154.032 31.5445 153.893 31.5698 153.76 31.6266C153.627 31.6833 153.507 31.7654 153.413 31.8668C153.312 31.9616 153.236 32.0817 153.179 32.2143C153.122 32.3468 153.09 32.4922 153.09 32.6438ZM156.806 31.1714H158.177C158.233 31.1714 158.278 31.1905 158.322 31.2282C158.36 31.2722 158.385 31.3165 158.385 31.3736C158.385 31.4304 158.366 31.4812 158.322 31.5189C158.284 31.5632 158.233 31.5823 158.177 31.5823H156.806V32.6753C156.806 32.8207 156.837 32.9595 156.894 33.0924C156.951 33.2253 157.026 33.3326 157.128 33.4274C157.229 33.5222 157.343 33.598 157.475 33.6548C157.614 33.7116 157.753 33.7368 157.911 33.7368C158.05 33.7368 158.177 33.7178 158.29 33.6735C158.404 33.6355 158.511 33.5724 158.619 33.4776C158.632 33.4648 158.644 33.4586 158.657 33.4461C158.669 33.4399 158.682 33.4271 158.701 33.4208C158.732 33.408 158.77 33.408 158.802 33.408C158.84 33.4143 158.872 33.4271 158.903 33.4586C158.928 33.4776 158.941 33.5029 158.954 33.5281C158.96 33.5596 158.966 33.5849 158.966 33.6167C158.96 33.6482 158.954 33.6735 158.941 33.705C158.929 33.7303 158.91 33.7555 158.891 33.7746C158.758 33.9009 158.613 33.9957 158.448 34.0591C158.278 34.1224 158.101 34.1539 157.911 34.1539C157.703 34.1539 157.507 34.1158 157.317 34.04C157.134 33.9642 156.976 33.8569 156.837 33.724C156.698 33.5912 156.591 33.4333 156.515 33.2564C156.433 33.0733 156.395 32.8774 156.395 32.6688V30.3751C156.395 30.3183 156.414 30.2678 156.458 30.2297C156.496 30.1854 156.547 30.1664 156.603 30.1664C156.66 30.1664 156.711 30.1854 156.749 30.2232C156.787 30.2675 156.806 30.318 156.806 30.381V31.1708V31.1714ZM159.655 32.6438C159.655 32.7954 159.686 32.9345 159.743 33.0671C159.8 33.1934 159.876 33.3135 159.977 33.4146C160.072 33.5094 160.192 33.5915 160.325 33.6486C160.457 33.7053 160.596 33.7371 160.748 33.7371C160.906 33.7371 161.045 33.7056 161.177 33.6486C161.316 33.5918 161.43 33.5097 161.525 33.4146C161.626 33.3135 161.702 33.1934 161.759 33.0671C161.816 32.9345 161.841 32.7954 161.841 32.6438C161.841 32.4922 161.816 32.3468 161.759 32.2143C161.702 32.0817 161.62 31.9616 161.525 31.8668C161.424 31.7657 161.31 31.6837 161.177 31.6266C161.045 31.5698 160.906 31.5445 160.748 31.5445C160.596 31.5445 160.457 31.5698 160.325 31.6266C160.192 31.6833 160.072 31.7654 159.977 31.8668C159.876 31.9616 159.8 32.0817 159.743 32.2143C159.686 32.3468 159.655 32.4922 159.655 32.6438ZM159.244 32.6438C159.244 32.4354 159.282 32.2395 159.364 32.0561C159.44 31.873 159.548 31.7086 159.687 31.576C159.825 31.4369 159.984 31.3296 160.167 31.2538C160.35 31.1718 160.546 31.1337 160.748 31.1337C160.957 31.1337 161.152 31.1718 161.336 31.2538C161.519 31.3296 161.677 31.4369 161.809 31.576C161.948 31.7086 162.056 31.873 162.132 32.0561C162.214 32.2392 162.252 32.4351 162.252 32.6438C162.252 32.8525 162.214 33.0484 162.132 33.2315C162.056 33.4146 161.949 33.5728 161.809 33.7116C161.677 33.8507 161.519 33.958 161.336 34.0338C161.152 34.1161 160.957 34.1539 160.748 34.1539C160.546 34.1539 160.35 34.1158 160.167 34.0338C159.984 33.958 159.825 33.8507 159.687 33.7116C159.548 33.5728 159.44 33.4146 159.364 33.2315C159.282 33.0484 159.244 32.8525 159.244 32.6438ZM163.168 33.9012C163.168 33.9642 163.149 34.0085 163.111 34.0528C163.074 34.0906 163.023 34.1096 162.973 34.1096C162.909 34.1096 162.859 34.0906 162.821 34.0528C162.777 34.0085 162.758 33.9642 162.758 33.9012V32.7449C162.758 32.5303 162.802 32.3278 162.884 32.1319C162.966 31.9422 163.074 31.7782 163.219 31.6328C163.358 31.494 163.522 31.3801 163.712 31.2981C163.901 31.2161 164.103 31.1718 164.318 31.1718H164.325H164.344C164.407 31.1718 164.464 31.1908 164.501 31.2285C164.539 31.2663 164.558 31.3168 164.558 31.3739C164.558 31.4307 164.533 31.4815 164.495 31.5193C164.451 31.5636 164.4 31.5826 164.343 31.5826H164.324H164.318C164.16 31.5826 164.014 31.6141 163.875 31.6709C163.737 31.7342 163.61 31.8162 163.509 31.9173C163.402 32.0246 163.319 32.1512 163.262 32.2901C163.199 32.4292 163.168 32.5808 163.168 32.7449V33.9012H163.168Z" fill="#3392FF"/>
<path fill-rule="evenodd" clip-rule="evenodd" d="M66.3393 32.4304L73.6322 32.4301L78.7888 37.5871L83.9455 32.4304H91.238V25.1376L96.3946 19.981L91.238 14.8243V7.53181H83.9455L78.7888 2.37515L73.6322 7.53181H66.3393V14.8243L61.1827 19.981L66.3393 25.1376V32.4304Z" fill="#20C8D4"/>
<path fill-rule="evenodd" clip-rule="evenodd" d="M64.6568 5.85795H72.9409L78.7988 6.10352e-05L84.6567 5.85795H92.9408V14.1421L98.7987 20L92.9408 25.8579V34.142H84.6567L78.7988 39.9999L72.9409 34.142H64.6568V25.8576L58.7989 19.9997L64.6568 14.1418V5.85764V5.85795ZM65.9335 7.13472H73.47L78.7991 1.80556L84.1283 7.13472H91.6647V14.6708L96.9939 20L91.6647 25.3292V32.8656H84.1283L78.7991 38.1948L73.47 32.8656H65.9335V25.3292L60.6044 20L65.9335 14.6708V7.13441V7.13472Z" fill="#3392FF"/>
<path d="M79.1394 34.5291C79.1201 34.3997 79.112 34.3198 79.1039 34.2509C79.0296 34.2234 78.9385 34.2013 78.8422 34.2013C78.5807 34.2013 78.421 34.3635 78.421 34.5591C78.421 34.7765 78.6138 34.8729 78.7542 34.9446C78.9083 35.0245 79.0159 35.0906 79.0159 35.2338C79.0159 35.3742 78.9304 35.465 78.7816 35.465C78.5751 35.465 78.4787 35.2585 78.4429 35.1346L78.3824 35.1511C78.3961 35.2475 78.4263 35.4266 78.4376 35.465C78.4594 35.4734 78.4872 35.4899 78.5393 35.5064C78.5889 35.5258 78.6575 35.5395 78.7401 35.5395C79.0156 35.5395 79.1943 35.3717 79.1943 35.1596C79.1943 34.945 79.0181 34.8511 78.8475 34.7687C78.6821 34.6889 78.5885 34.6227 78.5885 34.4824C78.5885 34.375 78.66 34.2705 78.8116 34.2705C78.9822 34.2705 79.043 34.4137 79.0786 34.5376L79.1391 34.5291H79.1394Z" fill="#3392FF"/>
<path d="M79.4966 5.20194H79.0243V5.25903C79.1653 5.26433 79.2115 5.29147 79.2196 5.38099C79.2249 5.43777 79.233 5.5248 79.233 5.70385V6.15679H79.2277L78.3867 5.20163H78.0829V5.25871C78.1752 5.26402 78.2158 5.28024 78.2592 5.32921C78.2944 5.37538 78.2997 5.3863 78.2997 5.52729V5.94248C78.2997 6.12154 78.2916 6.21387 78.2835 6.27345C78.2754 6.37109 78.2239 6.39542 78.1097 6.40384V6.46061H78.5845V6.40384C78.4488 6.39292 78.4026 6.36859 78.3945 6.26815C78.3892 6.21387 78.3811 6.12154 78.3811 5.94248V5.47021H78.3839L79.2549 6.47964H79.3172V5.70385C79.3172 5.5248 79.3226 5.43808 79.3282 5.37538C79.3391 5.28585 79.3852 5.26402 79.4966 5.25871V5.20163V5.20194Z" fill="#3392FF"/>
<path d="M65.5355 19.3505H65.0866V19.4085C65.2491 19.4251 65.2544 19.4497 65.227 19.5683C65.1967 19.6921 65.0866 20.0748 65.0011 20.3394H64.9955C64.8717 20.009 64.7531 19.6924 64.6405 19.3702H64.5744C64.4727 19.6896 64.357 20.0146 64.2522 20.3394H64.2465C64.1586 20.0695 64.0812 19.8078 64.0017 19.5492C63.9742 19.4475 63.9742 19.4254 64.1255 19.4089V19.3508H63.6161V19.4089C63.74 19.4226 63.7702 19.4444 63.8198 19.6069C63.9327 19.951 64.0482 20.2954 64.1555 20.6504H64.2244C64.3292 20.3363 64.4421 20.0199 64.5547 19.684H64.5576C64.6621 19.9594 64.7971 20.3366 64.91 20.6504H64.9815C65.1493 20.0998 65.2706 19.7361 65.3174 19.6122C65.3779 19.4472 65.3973 19.4279 65.5349 19.4085V19.3505H65.5355Z" fill="#3392FF"/>
<path d="M94.047 20.3113C94.0167 20.3912 93.978 20.4598 93.945 20.5013C93.8982 20.5534 93.8376 20.5674 93.6917 20.5674C93.6009 20.5674 93.5266 20.5674 93.488 20.5453C93.4493 20.5203 93.4384 20.4763 93.4384 20.3827V20.0193H93.6227C93.799 20.0193 93.8127 20.0303 93.8405 20.1734H93.901V19.7879H93.8405C93.8155 19.9201 93.8018 19.9367 93.6227 19.9367H93.4384V19.4962C93.4384 19.4385 93.4412 19.4329 93.5073 19.4329H93.6561C93.7965 19.4329 93.8517 19.4466 93.8791 19.4881C93.9038 19.5321 93.9259 19.5764 93.9453 19.6587L94.0086 19.6503C94.0002 19.5402 93.9921 19.4107 93.9893 19.3611H93.0781V19.4192C93.235 19.4329 93.2515 19.4385 93.2515 19.6172V20.3884C93.2515 20.5481 93.235 20.5674 93.0534 20.5811V20.6388H94.0392C94.0557 20.5755 94.0944 20.3937 94.1081 20.3194L94.0476 20.3113H94.047Z" fill="#3392FF"/>
<path fill-rule="evenodd" clip-rule="evenodd" d="M78.7988 11.7823C83.3375 11.7823 87.0171 15.4616 87.0171 20.0003C87.0171 24.539 83.3378 28.2186 78.7988 28.2186C74.2601 28.2186 70.5808 24.5393 70.5808 20.0003C70.5808 15.4616 74.2601 11.7823 78.7988 11.7823ZM78.7988 12.4489C82.9694 12.4489 86.3505 15.8297 86.3505 20.0006C86.3505 24.1712 82.9694 27.5523 78.7988 27.5523C74.6282 27.5523 71.2471 24.1712 71.2471 20.0006C71.2471 15.83 74.6282 12.4489 78.7988 12.4489Z" fill="#3392FF"/>
<path fill-rule="evenodd" clip-rule="evenodd" d="M78.7988 13.8878C82.1749 13.8878 84.9116 16.6245 84.9116 20.0006C84.9116 23.3767 82.1749 26.1133 78.7988 26.1133C75.423 26.1133 72.6861 23.3767 72.6861 20.0006C72.6861 16.6245 75.423 13.8878 78.7988 13.8878ZM78.7988 14.1967C82.0043 14.1967 84.6027 16.7951 84.6027 20.0006C84.6027 23.2061 82.0043 25.8045 78.7988 25.8045C75.5937 25.8045 72.9949 23.2061 72.9949 20.0006C72.9949 16.7954 75.5933 14.1967 78.7988 14.1967Z" fill="#3392FF"/>
<path fill-rule="evenodd" clip-rule="evenodd" d="M77.4019 17.5369L78.7121 8.19186L80.1526 17.5531L78.7988 20.0006L77.4019 17.5369Z" fill="white"/>
<path fill-rule="evenodd" clip-rule="evenodd" d="M80.0977 22.3548L78.9828 31.8084L77.4653 22.459L78.7988 20.0006L80.0977 22.3548Z" fill="white"/>
<path fill-rule="evenodd" clip-rule="evenodd" d="M81.1377 18.674L90.6078 20.0543L81.2297 21.3831L78.7988 20.0006L81.1377 18.674Z" fill="white"/>
<path fill-rule="evenodd" clip-rule="evenodd" d="M76.4708 21.3463L66.9894 20.0443L76.3563 18.6381L78.7988 20.0006L76.4708 21.3463Z" fill="white"/>
<path fill-rule="evenodd" clip-rule="evenodd" d="M78.7121 8.19186L80.1526 17.5531L78.7988 20.0006L78.7121 8.19186Z" fill="#3392FF"/>
<path fill-rule="evenodd" clip-rule="evenodd" d="M78.9825 31.8084L77.4653 22.459L78.7988 20.0006L78.9825 31.8084Z" fill="#3392FF"/>
<path fill-rule="evenodd" clip-rule="evenodd" d="M90.6078 20.0543L81.2297 21.3831L78.7988 20.0006L90.6078 20.0543Z" fill="#3392FF"/>
<path fill-rule="evenodd" clip-rule="evenodd" d="M66.9894 20.0443L76.3563 18.6381L78.7988 20.0006L66.9894 20.0443Z" fill="#3392FF"/>
<path fill-rule="evenodd" clip-rule="evenodd" d="M81.1377 18.674L78.7988 20.0006L80.1526 17.5532L84.094 14.6241L81.1377 18.674Z" fill="white"/>
<path fill-rule="evenodd" clip-rule="evenodd" d="M76.4711 21.3463L78.7988 20.0006L77.4653 22.459L73.5482 25.4205L76.4711 21.3463Z" fill="white"/>
<path fill-rule="evenodd" clip-rule="evenodd" d="M80.0977 22.3548L78.7988 20.0006L81.2297 21.3831L84.112 25.3591L80.0977 22.3548Z" fill="white"/>
<path fill-rule="evenodd" clip-rule="evenodd" d="M77.4809 17.657L78.7988 20.0006L76.3563 18.6381L73.4416 14.6861L77.4809 17.657Z" fill="white"/>
<path fill-rule="evenodd" clip-rule="evenodd" d="M84.094 14.6241L81.1377 18.674L78.7988 20.0006L84.094 14.6241Z" fill="#3392FF"/>
<path fill-rule="evenodd" clip-rule="evenodd" d="M73.5482 25.4205L76.4711 21.3463L78.7988 20.0006L73.5482 25.4205Z" fill="#3392FF"/>
<path fill-rule="evenodd" clip-rule="evenodd" d="M84.112 25.3591L80.0977 22.3548L78.7988 20.0006L84.112 25.3591Z" fill="#3392FF"/>
<path fill-rule="evenodd" clip-rule="evenodd" d="M73.4416 14.6861L77.4019 17.5369L78.7988 20.0006L73.4416 14.6861Z" fill="#3392FF"/>
<path d="M8.12975 15.4217L4.85315 21.6208H11.3886L8.12975 15.4217ZM13.9215 26.4206L12.4339 23.5514H3.80847L2.32052 26.4206H0.000320435L6.78374 13.5974H9.4583L16.2417 26.4206H13.9215Z" fill="#3392FF"/>
<path d="M29.1357 16.6086C28.1793 16.1126 27.2229 15.7408 26.2842 15.5106C25.3278 15.28 24.3359 15.1562 23.3264 15.1562C21.9982 15.1562 20.9885 15.3156 20.2978 15.6166C19.6069 15.9354 19.2706 16.3606 19.2706 16.8918C19.2706 17.4586 19.6425 17.866 20.3864 18.1315C20.7408 18.2556 21.1304 18.3439 21.573 18.3972C21.9982 18.4503 22.4764 18.5036 22.9899 18.5214C23.5036 18.5566 24.0526 18.5922 24.6369 18.6278C25.2215 18.663 25.8413 18.7164 26.4967 18.8049C28.1085 18.9999 29.2951 19.3895 30.0568 19.9741C30.8183 20.5587 31.2079 21.3734 31.2079 22.4537C31.2079 23.8175 30.6233 24.8625 29.4367 25.6065C28.2501 26.3504 26.4967 26.7223 24.2117 26.7223C22.5647 26.7223 21.1301 26.5451 19.8724 26.191C18.6149 25.8544 17.5166 25.3054 16.578 24.5615L17.7468 23.0205C18.7918 23.6581 19.8368 24.1185 20.8818 24.4198C21.9268 24.7209 23.0426 24.8625 24.2292 24.8625C25.7702 24.8625 26.9212 24.6501 27.7185 24.2427C28.5155 23.8353 28.9052 23.2863 28.9052 22.5956C28.9052 22.1352 28.781 21.7808 28.5155 21.5328C28.2498 21.2849 27.8602 21.0899 27.3464 20.9661C26.8326 20.8419 26.2128 20.7355 25.4866 20.6825C24.7426 20.6295 23.8926 20.5761 22.954 20.5231C21.962 20.4523 21.0942 20.3459 20.368 20.2221C19.6241 20.0979 19.0042 19.9211 18.5082 19.6731C18.0123 19.4251 17.6404 19.1063 17.3924 18.6989C17.1445 18.2915 17.0206 17.7955 17.0206 17.1757C17.0206 15.9713 17.5696 15.0149 18.6854 14.3243C19.8012 13.6336 21.3952 13.2793 23.4852 13.2793C26.2484 13.2793 28.5686 13.9169 30.428 15.1743L29.1351 16.6092L29.1357 16.6086ZM34.5375 26.4206V13.5974H36.6631V26.4206H34.5375Z" fill="#3392FF"/>
<path d="M47.06 15.4217L43.7834 21.6208H50.3188L47.0597 15.4217H47.06ZM52.8517 26.4206L51.3641 23.5514H42.7384L41.2504 26.4206H38.9302L45.7137 13.5974H48.3882L55.1716 26.4206H52.8514H52.8517Z" fill="#3392FF"/>
<path d="M102.425 26.2169V13.3937H104.551V24.2863H114.451V26.2169H102.425Z" fill="#3392FF"/>
<path d="M131.118 22.0725C131.118 22.7279 130.959 23.3299 130.622 23.8789C130.286 24.4279 129.79 24.9061 129.17 25.3135C128.55 25.7209 127.788 26.0397 126.903 26.2699C125.999 26.5001 124.99 26.6065 123.874 26.6065C122.758 26.6065 121.748 26.5001 120.845 26.2699C119.942 26.0219 119.163 25.7209 118.543 25.3135C117.923 24.9061 117.445 24.4279 117.108 23.8789C116.772 23.3299 116.595 22.7279 116.595 22.0725V13.3937H118.72V21.5765C118.72 22.5682 119.163 23.3477 120.031 23.8789C120.898 24.4102 122.174 24.6759 123.874 24.6759C125.557 24.6759 126.832 24.4102 127.7 23.8789C128.567 23.3477 128.993 22.5682 128.993 21.5765V13.3937H131.118V22.0725H131.118Z" fill="#3392FF"/>
<path d="M145.925 26.2169L140.753 21.045L135.599 26.2169H132.836L139.372 19.7167L133.066 13.3937H135.829L140.771 18.3885L145.695 13.3937H148.458L142.152 19.7167L148.688 26.2169H145.925H145.925ZM151.062 26.2169V13.3937H163.991V15.3243H153.187V18.6009H160.697V20.5315H153.187V24.2866H164.487V26.2172H151.062V26.2169Z" fill="#3392FF"/>
</g>
<defs>
<clipPath id="clip0_7_3">
<rect width="164.558" height="40" fill="white"/>
</clipPath>
</defs>
</svg>
