<svg width="76" height="76" viewBox="0 0 76 76" fill="none" xmlns="http://www.w3.org/2000/svg">
<g filter="url(#filter0_d_342_2657)">
<path opacity="0.984" fill-rule="evenodd" clip-rule="evenodd" d="M41.4168 0.0889704C45.3029 -0.347724 48.5954 0.823157 51.2942 3.60161C51.6379 4.36096 51.5648 5.06838 51.0747 5.72384C49.1659 6.49006 47.3124 7.36822 45.5141 8.35832C50.1837 9.22416 53.3298 11.8831 54.9525 16.3349C55.2244 17.225 54.9562 17.8836 54.1477 18.3108C52.8804 18.2483 51.6123 18.1994 50.343 18.1644C52.8652 20.8046 53.9627 23.9514 53.6355 27.6047C53.243 28.4473 52.5846 28.7644 51.66 28.556C47.8845 26.0098 43.7872 24.1315 39.3681 22.9212C39.2705 22.9699 39.1731 23.0188 39.0755 23.0675C43.1157 29.0482 46.7496 35.293 49.9772 41.8016C52.3869 46.9096 54.1671 52.2273 55.3183 57.7549C51.1419 57.2135 46.947 56.9696 42.7338 57.0231C42.1422 51.7778 40.752 46.7528 38.5633 41.948C35.8389 35.9086 32.5222 30.2493 28.6127 24.9702C25.3794 30.2813 23.4282 36.0382 22.7595 42.2407C21.8404 43.1909 20.8892 43.2152 19.906 42.3139C17.411 40.1284 16.0209 37.3719 15.7355 34.0445C15.1136 34.9468 14.5283 35.8737 13.9796 36.8254C13.4318 37.3755 12.7733 37.5463 12.0041 37.3376C11.569 37.0793 11.252 36.7134 11.0529 36.2399C9.14281 32.2733 9.21598 28.346 11.2724 24.4579C9.30665 25.1466 7.37995 25.9515 5.4923 26.8729C4.76898 26.8537 4.28121 26.5122 4.02898 25.8484C3.68566 19.6825 6.3928 15.4625 12.1504 13.1882C13.7365 12.6818 15.3461 12.2915 16.9794 12.0173C13.5517 10.6486 9.99095 9.91683 6.29713 9.82192C5.30968 9.33261 5.04141 8.57641 5.4923 7.55334C7.67218 4.64453 10.5744 2.91261 14.199 2.35755C19.448 1.72532 24.033 3.16454 27.9543 6.67518C28.5981 7.29434 29.1591 7.97736 29.6371 8.72422C32.2684 4.06639 36.1949 1.18797 41.4168 0.0889704Z" fill="white"/>
<path opacity="0.982" fill-rule="evenodd" clip-rule="evenodd" d="M40.9776 59.8038C47.6497 59.5035 54.2346 60.1134 60.7324 61.6333C64.3305 62.4731 67.5985 63.9856 70.5366 66.1705C71.0035 66.7106 71.4425 67.2715 71.8536 67.8536C53.7572 68.0487 35.6609 68.0487 17.5645 67.8536C18.4764 66.5755 19.5984 65.5265 20.9301 64.7069C24.6402 62.6931 28.5912 61.3759 32.783 60.7552C35.5228 60.3149 38.2542 59.9977 40.9776 59.8038Z" fill="white"/>
</g>
<defs>
<filter id="filter0_d_342_2657" x="0" y="0" width="75.8536" height="76" filterUnits="userSpaceOnUse" color-interpolation-filters="sRGB">
<feFlood flood-opacity="0" result="BackgroundImageFix"/>
<feColorMatrix in="SourceAlpha" type="matrix" values="0 0 0 0 0 0 0 0 0 0 0 0 0 0 0 0 0 0 127 0" result="hardAlpha"/>
<feOffset dy="4"/>
<feGaussianBlur stdDeviation="2"/>
<feComposite in2="hardAlpha" operator="out"/>
<feColorMatrix type="matrix" values="0 0 0 0 0 0 0 0 0 0 0 0 0 0 0 0 0 0 0.25 0"/>
<feBlend mode="normal" in2="BackgroundImageFix" result="effect1_dropShadow_342_2657"/>
<feBlend mode="normal" in="SourceGraphic" in2="effect1_dropShadow_342_2657" result="shape"/>
</filter>
</defs>
</svg>
