<svg width="9" height="10" viewBox="0 0 9 10" fill="none" xmlns="http://www.w3.org/2000/svg">
<path d="M9 4.66669C9 7.15197 6.98528 9.16669 4.5 9.16669C2.01472 9.16669 0 7.15197 0 4.66669C0 2.18141 2.01472 0.166687 4.5 0.166687C6.98528 0.166687 9 2.18141 9 4.66669Z" fill="#3392FF"/>
<path d="M6.4971 2.88334C6.39457 2.91557 6.39066 2.9185 5.08597 4.22319L3.80179 5.50639L3.22074 4.92533C2.6807 4.38725 2.6348 4.3433 2.57425 4.31498C2.41898 4.24272 2.25394 4.26518 2.13089 4.37651C2.03324 4.4644 1.98539 4.60502 2.00882 4.73198C2.03324 4.86283 2.01761 4.84623 2.82816 5.65385C3.53714 6.36088 3.58109 6.40287 3.64066 6.42924C3.71683 6.46244 3.82132 6.47221 3.89164 6.45365C4.01078 6.42143 3.96 6.46928 5.48246 4.94682C7.05863 3.36869 6.96878 3.46537 6.9932 3.32573C7.0264 3.13139 6.90433 2.94291 6.70804 2.88334C6.65335 2.86674 6.54984 2.86674 6.4971 2.88334Z" fill="white"/>
</svg>
