<svg width="35" height="35" viewBox="0 0 35 35" fill="none" xmlns="http://www.w3.org/2000/svg">
<g id="free-icon-email-6129126 1" clip-path="url(#clip0_90_2431)">
<g id="Group">
<path id="Vector" opacity="0.99" fill-rule="evenodd" clip-rule="evenodd" d="M19.0723 0.0898905C17.4658 -0.0757515 16.9948 0.0262381 15.9277 0.0898905C9.79973 0.832269 5.18547 3.85509 2.08496 9.15833C0.943703 11.3041 0.24876 13.5769 0 15.9767C0 17.0222 0 18.0677 0 19.1132C0.744297 25.2254 3.77487 29.8279 9.0918 32.9204C11.2431 34.0587 13.5218 34.7519 15.9277 35C16.9759 35 18.0241 35 19.0723 35C25.2003 34.2576 29.8145 31.2348 32.915 25.9316C34.0563 23.7857 34.7513 21.513 35 19.1132C35 18.0677 35 17.0222 35 15.9767C34.2557 9.86452 31.2251 5.26213 25.9082 2.1695C23.7569 1.03119 21.4782 0.337984 19.0723 0.0898905ZM25.9766 9.49925C20.3255 9.48787 14.6744 9.49925 9.02344 9.53335C7.614 9.67394 6.75951 10.4353 6.45996 11.8175C6.41437 15.6358 6.41437 19.4541 6.45996 23.2724C6.75951 24.6546 7.614 25.4159 9.02344 25.5565C14.6745 25.602 20.3255 25.602 25.9766 25.5565C27.386 25.4159 28.2405 24.6546 28.54 23.2724C28.5856 19.4541 28.5856 15.6358 28.54 11.8175C28.2243 10.4403 27.3698 9.6676 25.9766 9.49925Z" fill="#3392FF"/>
</g>
<g id="Group_2">
<path id="Vector_2" opacity="0.97" fill-rule="evenodd" clip-rule="evenodd" d="M25.6689 11.2451C20.2572 11.1654 14.8341 11.1541 9.39941 11.2109C12.0863 13.329 14.798 15.4139 17.5342 17.4658C20.2601 15.4082 22.9717 13.3347 25.6689 11.2451Z" fill="#3392FF"/>
</g>
<g id="Group_3">
<path id="Vector_3" opacity="0.971" fill-rule="evenodd" clip-rule="evenodd" d="M26.831 12.5439C24.9882 13.931 23.1653 15.3438 21.3623 16.7822C23.1635 18.481 24.975 20.1672 26.7969 21.8408C26.831 18.742 26.8425 15.643 26.831 12.5439Z" fill="#3392FF"/>
</g>
<g id="Group_4">
<path id="Vector_4" opacity="0.97" fill-rule="evenodd" clip-rule="evenodd" d="M8.30566 12.5439C8.22603 15.6314 8.21468 18.7303 8.27148 21.8408C10.0933 20.1672 11.9049 18.481 13.7061 16.7822C11.9046 15.3679 10.1045 13.9551 8.30566 12.5439Z" fill="#3392FF"/>
</g>
<g id="Group_5">
<path id="Vector_5" opacity="0.972" fill-rule="evenodd" clip-rule="evenodd" d="M19.9951 17.876C19.3308 18.3001 18.6928 18.7672 18.0811 19.2773C17.7165 19.5052 17.3519 19.5052 16.9873 19.2773C16.3818 18.7971 15.7665 18.33 15.1416 17.876C13.0145 19.7637 10.9182 21.6891 8.85254 23.6523C14.6079 23.766 20.3729 23.7889 26.1475 23.7207C26.1702 23.6979 26.1931 23.6751 26.2158 23.6523C24.1494 21.7109 22.0758 19.7855 19.9951 17.876Z" fill="#3392FF"/>
</g>
</g>
<defs>
<clipPath id="clip0_90_2431">
<rect width="35" height="35" fill="white" transform="matrix(-1 0 0 1 35 0)"/>
</clipPath>
</defs>
</svg>
